<?xml version="1.0" standalone="no"?>
<!DOCTYPE svg PUBLIC "-//W3C//DTD SVG 20010904//EN"
 "http://www.w3.org/TR/2001/REC-SVG-20010904/DTD/svg10.dtd">
<svg version="1.0" xmlns="http://www.w3.org/2000/svg"
 width="512.000000pt" height="512.000000pt" viewBox="0 0 512.000000 512.000000"
 preserveAspectRatio="xMidYMid meet">
<metadata>
Created by potrace 1.14, written by Peter Selinger 2001-2017
</metadata>
<g transform="translate(0.000000,512.000000) scale(0.100000,-0.100000)"
fill="#000000" stroke="none">
<path d="M2374 3674 c-659 -110 -1079 -757 -914 -1404 48 -189 159 -381 303
-522 445 -438 1158 -435 1602 7 549 547 396 1471 -300 1815 -215 107 -459 143
-691 104z m95 -398 c48 -25 51 -46 51 -334 0 -247 -2 -269 -20 -299 -13 -22
-29 -34 -52 -38 -18 -3 -154 -5 -301 -3 l-269 3 -24 28 -24 28 0 282 c0 304 2
316 54 337 11 5 142 9 289 9 213 1 274 -2 296 -13z m793 -15 l33 -29 0 -287 0
-287 -33 -29 -32 -29 -275 0 c-179 0 -282 4 -298 11 -49 22 -52 41 -52 341 l0
280 33 29 32 29 280 0 280 0 32 -29z m-768 -782 l26 -31 0 -280 0 -280 -29
-29 -29 -29 -290 0 -289 0 -27 26 -26 27 0 289 0 289 25 24 24 25 295 0 294 0
26 -31z m484 -121 l3 -148 142 0 c98 0 147 -4 155 -12 17 -17 15 -55 -4 -62
-9 -3 -78 -6 -155 -6 l-138 0 -3 -147 c-3 -147 -3 -148 -27 -151 -13 -2 -28 2
-32 10 -5 7 -9 75 -9 151 l0 137 -139 0 c-114 0 -143 3 -155 16 -20 19 -20 29
0 48 12 13 41 16 155 16 l139 0 0 134 c0 74 3 142 6 151 4 10 16 15 33 13 l26
-3 3 -147z"/>
<path d="M1905 3207 c-3 -7 -4 -129 -3 -272 l3 -260 270 0 270 0 3 259 c2 182
-1 263 -9 272 -16 20 -527 21 -534 1z"/>
<path d="M2685 3208 c-3 -8 -4 -130 -3 -273 l3 -260 265 0 265 0 0 270 0 270
-263 3 c-206 2 -264 0 -267 -10z"/>
<path d="M1912 2442 c-9 -7 -12 -68 -10 -273 l3 -264 270 0 270 0 3 259 c2
182 -1 263 -9 272 -9 11 -62 14 -263 14 -138 0 -257 -4 -264 -8z"/>
</g>
</svg>
